<svg preserveAspectRatio="none" width="100%" height="100%" overflow="visible" style="display: block;" viewBox="0 0 89.8085 7.77422" fill="none" xmlns="http://www.w3.org/2000/svg">
<g id="Group">
<path id="Vector" d="M0 7.68953V0.379637C0.931061 0.379637 1.93868 0.369178 2.8695 0.379637C4.36389 0.379637 5.44387 1.40201 5.44387 2.8097C5.44387 4.21787 4.36389 5.2169 2.8695 5.2169H0.529495V7.68929H0V7.68953ZM2.8695 4.72724C4.01246 4.72724 4.91314 3.95613 4.91314 2.79827C4.91314 1.64186 4.04629 0.858839 2.8695 0.858839H0.529495V4.72699H2.8695V4.72724Z" fill="var(--fill-0, #00A6CA)"/>
<path id="Vector_2" d="M7.95089 7.77053C7.06082 7.77053 6.14062 7.31298 6.14062 6.35385C6.14062 5.25971 7.11441 4.72578 8.14179 4.72578C8.77576 4.72578 9.42404 4.85227 10.017 5.1016V4.2259C10.017 3.24682 9.10496 3.02522 8.29072 3.02522C7.698 3.02522 7.0833 3.1612 6.64938 3.41345L6.53231 2.9953C7.00772 2.73356 7.68713 2.57813 8.35517 2.57813C9.4564 2.57813 10.4941 2.98484 10.4941 4.23539V6.53069C10.4941 7.1359 10.4603 7.47985 11.138 7.39593L11.1592 7.73988C10.2906 7.87537 10.059 7.57301 10.0894 6.78197C9.6878 7.51171 8.79774 7.77053 7.95089 7.77053ZM10.0168 5.5302C9.43293 5.23709 8.80836 5.12252 8.20477 5.13346C7.44239 5.13346 6.63802 5.48982 6.63802 6.31225C6.63802 7.08335 7.32458 7.34412 8.03436 7.34412C8.86195 7.34412 9.79375 6.98022 10.0165 6.11352V5.5302H10.0168Z" fill="var(--fill-0, #00A6CA)"/>
<path id="Vector_3" d="M14.5028 2.5887C15.0004 2.59721 15.4462 2.7327 15.786 2.97352L15.604 3.41258C15.2768 3.17128 14.8542 3.06668 14.4386 3.06668C13.6779 3.06668 12.9459 3.57921 12.9459 4.43496V7.68696H12.4384V3.81833C12.4384 3.32842 12.4268 3.01536 11.7812 3.10001L11.7617 2.65C12.575 2.51499 12.9049 2.81857 12.9049 3.40212C13.2428 2.80714 13.9116 2.55635 14.5028 2.5887Z" fill="var(--fill-0, #00A6CA)"/>
<path id="Vector_4" d="M17.8524 2.66162H19.8321V3.08925H17.8524V5.80051C17.8524 6.84186 18.1823 7.27241 18.8457 7.2819C19.1667 7.2819 19.5565 7.1987 20.0104 7.04156L20.0872 7.4692C19.6101 7.63509 19.1749 7.71001 18.8156 7.71001C17.8615 7.71001 17.3454 7.1357 17.3454 5.81097V3.08925L16.1797 3.05738V2.66162H17.3454L17.3871 1.12891H17.8526V2.66162H17.8524Z" fill="var(--fill-0, #00A6CA)"/>
<path id="Vector_5" d="M26.2208 7.77054C24.8763 7.77054 23.543 6.89581 23.543 5.1646C23.543 3.42196 24.8877 2.57813 26.2317 2.57813C27.5752 2.57813 28.9004 3.43388 28.9004 5.1646C28.9004 6.89605 27.5557 7.77054 26.2208 7.77054ZM26.2208 7.32442C27.3008 7.32442 28.3931 6.59467 28.3931 5.1646C28.3931 3.73648 27.3114 3.04809 26.2317 3.03763C25.1411 3.02522 24.0515 3.72602 24.0515 5.1646C24.0515 6.59467 25.1322 7.32442 26.2208 7.32442Z" fill="var(--fill-0, #00A6CA)"/>
<path id="Vector_6" d="M30.7437 3.10147H29.5469V2.6624H30.7437V1.75508C30.7437 -0.0478865 32.1845 -0.299162 33.5487 0.273204L33.4435 0.679917C32.3949 0.232824 31.2527 0.296071 31.2527 1.76651V2.66264H33.2225V3.10171H31.2527V7.68867H30.7434V3.10147H30.7437Z" fill="var(--fill-0, #00A6CA)"/>
<path id="Vector_7" d="M35.7383 0.872017V0.390625H41.1365V0.872017H38.7014V7.69152H38.1726V0.872017H35.7383Z" fill="var(--fill-0, #00A6CA)"/>
<path id="Vector_8" d="M43.5267 2.5887C44.0244 2.59721 44.4699 2.7327 44.808 2.97352L44.6284 3.41258C44.3005 3.17128 43.8769 3.06668 43.464 3.06668C42.7016 3.06668 41.9713 3.57921 41.9713 4.43496V7.68696H41.4628V3.81833C41.4628 3.32842 41.4522 3.01536 40.8066 3.10001L40.7852 2.65C41.6001 2.51499 41.9284 2.81857 41.9284 3.40212C42.2667 2.80714 42.9338 2.55635 43.5267 2.5887Z" fill="var(--fill-0, #00A6CA)"/>
<path id="Vector_9" d="M47.1186 7.77053C46.2285 7.77053 45.3086 7.31298 45.3086 6.35385C45.3086 5.25971 46.2811 4.72578 47.3088 4.72578C47.9435 4.72578 48.5883 4.85227 49.1822 5.1016V4.2259C49.1822 3.24682 48.2709 3.02522 47.4567 3.02522C46.864 3.02522 46.2485 3.1612 45.8154 3.41345L45.6993 2.9953C46.1754 2.73356 46.8531 2.57813 47.5202 2.57813C48.6224 2.57813 49.6601 2.98484 49.6601 4.23539V6.53069C49.6601 7.1359 49.628 7.47985 50.3047 7.39593L50.3252 7.73988C49.4586 7.87537 49.225 7.57301 49.2553 6.78197C48.8558 7.51171 47.9657 7.77053 47.1186 7.77053ZM49.1822 5.5302C48.5992 5.23709 47.9766 5.12252 47.372 5.13346C46.6086 5.13346 45.8043 5.48982 45.8043 6.31225C45.8043 7.08335 46.4928 7.34412 47.2026 7.34412C48.0274 7.34412 48.959 6.98022 49.1822 6.11352V5.5302V5.5302Z" fill="var(--fill-0, #00A6CA)"/>
<path id="Vector_10" d="M55.4816 7.68816V4.6327C55.4816 3.63124 54.804 3.04817 53.8196 3.04817C52.8129 3.04817 52.0827 3.67332 52.0827 4.71662V7.68792H51.5751V3.96595C51.5751 3.16104 51.4887 2.99539 50.9269 3.07809L50.918 2.64146C51.6902 2.5264 52.0506 2.6923 52.0506 3.49624C52.5072 2.84968 53.1313 2.56703 53.9356 2.57846C55.225 2.57846 55.9901 3.42229 55.9901 4.6327V7.68816H55.4816V7.68816Z" fill="var(--fill-0, #00A6CA)"/>
<path id="Vector_11" d="M57.754 6.29036C57.8414 7.02108 58.6776 7.35506 59.5035 7.35506C60.3399 7.35506 61.1984 7.05294 61.1984 6.33268C61.1984 5.40347 60.1918 5.40347 59.5141 5.32076C58.4959 5.20668 57.408 5.0296 57.408 3.99578C57.408 2.95395 58.4235 2.57813 59.4731 2.57813C60.5306 2.57813 61.5358 3.00673 61.5358 3.90164H61.0692C61.0692 3.27649 60.2757 2.99506 59.4803 2.99506C58.708 2.99506 57.8189 3.27625 57.8715 3.98557C57.8715 4.75861 58.9843 4.81942 59.5753 4.90335C60.6454 5.04832 61.7163 5.14319 61.6834 6.33244C61.6834 7.33536 60.6454 7.77004 59.4916 7.77004C58.4116 7.77004 57.3739 7.35482 57.2578 6.29011H57.754V6.29036Z" fill="var(--fill-0, #00A6CA)"/>
<path id="Vector_12" d="M63.0469 5.18969V0.390625H63.5781V5.17875C63.5781 6.52368 64.4985 7.28578 65.8334 7.28578C67.1557 7.28578 68.066 6.52368 68.066 5.17875V0.390625H68.5851V5.18969C68.5851 6.81606 67.4528 7.77422 65.8334 7.77422C64.2034 7.77422 63.0469 6.81606 63.0469 5.18969Z" fill="var(--fill-0, #00A6CA)"/>
<path id="Vector_13" d="M74.4157 7.68816V4.6327C74.4157 3.63124 73.7373 3.04817 72.7529 3.04817C71.747 3.04817 71.0177 3.67332 71.0177 4.71662V7.68792H70.5078V3.96595C70.5078 3.16104 70.4248 2.99539 69.8622 3.07809L69.8516 2.64146C70.6256 2.5264 70.9849 2.6923 70.9849 3.49624C71.4398 2.84968 72.0646 2.56703 72.869 2.57846C74.1619 2.57846 74.9235 3.42229 74.9235 4.6327V7.68816H74.4157V7.68816Z" fill="var(--fill-0, #00A6CA)"/>
<path id="Vector_14" d="M76.872 0.543357C77.0422 0.55479 77.2119 0.670576 77.2119 0.898744C77.2119 1.1291 77.0531 1.24221 76.8819 1.25462C76.7034 1.26362 76.5117 1.13859 76.5117 0.898744C76.5117 0.659143 76.6917 0.535086 76.872 0.543357ZM77.1047 7.68784H76.6088V2.66182H77.1047V7.68784Z" fill="var(--fill-0, #00A6CA)"/>
<path id="Vector_15" d="M81.1923 7.77047C79.8439 7.77047 78.5117 6.89574 78.5117 5.16453C78.5117 3.42189 79.8555 2.57806 81.2002 2.57806C82.5457 2.57806 83.8691 3.43381 83.8691 5.16453C83.8691 6.89598 82.5227 7.77047 81.1923 7.77047ZM81.1923 7.32435C82.2683 7.32435 83.3599 6.5946 83.3599 5.16453C83.3599 3.73641 82.2799 3.04802 81.2002 3.03756C80.1106 3.02515 79.02 3.72595 79.02 5.16453C79.02 6.5946 80.099 7.32435 81.1923 7.32435Z" fill="var(--fill-0, #00A6CA)"/>
<path id="Vector_16" d="M89.3012 7.68816V4.6327C89.3012 3.63124 88.6243 3.04817 87.6399 3.04817C86.6323 3.04817 85.9027 3.67332 85.9027 4.71662V7.68792H85.3945V3.96595C85.3945 3.16104 85.3088 2.99539 84.7472 3.07809L84.7383 2.64146C85.5105 2.5264 85.8706 2.6923 85.8706 3.49624C86.3255 2.84968 86.9496 2.56703 87.7557 2.57846C89.0471 2.57846 89.8085 3.42229 89.8085 4.6327V7.68816H89.3012V7.68816Z" fill="var(--fill-0, #00A6CA)"/>
</g>
</svg>
