<svg preserveAspectRatio="none" width="100%" height="100%" overflow="visible" style="display: block;" viewBox="0 0 18 18" fill="none" xmlns="http://www.w3.org/2000/svg">
<g id="LinkedIn">
<rect width="18" height="18" rx="9" fill="var(--fill-0, #0A66C2)"/>
<path id="Vector" d="M13.2191 4.04993H4.78074C4.58692 4.04993 4.40103 4.12692 4.26398 4.26398C4.12692 4.40103 4.04993 4.58692 4.04993 4.78074V13.2191C4.04993 13.4129 4.12692 13.5988 4.26398 13.7359C4.40103 13.8729 4.58692 13.9499 4.78074 13.9499H13.2191C13.4129 13.9499 13.5988 13.8729 13.7359 13.7359C13.8729 13.5988 13.9499 13.4129 13.9499 13.2191V4.78074C13.9499 4.58692 13.8729 4.40103 13.7359 4.26398C13.5988 4.12692 13.4129 4.04993 13.2191 4.04993ZM7.00068 12.4835H5.51224V7.75555H7.00068V12.4835ZM6.25543 7.10037C6.08659 7.09941 5.92182 7.04847 5.78191 6.95396C5.64199 6.85946 5.53321 6.72562 5.46929 6.56935C5.40537 6.41308 5.38917 6.24137 5.42274 6.0759C5.45631 5.91043 5.53815 5.75862 5.65792 5.63961C5.77769 5.52061 5.93003 5.43975 6.09571 5.40724C6.26139 5.37473 6.43299 5.39203 6.58885 5.45696C6.7447 5.52188 6.87784 5.63152 6.97144 5.77204C7.06505 5.91255 7.11494 6.07765 7.1148 6.24649C7.1164 6.35953 7.09521 6.47173 7.05252 6.57641C7.00983 6.68109 6.9465 6.7761 6.8663 6.85578C6.78611 6.93546 6.69069 6.99818 6.58574 7.0402C6.48079 7.08222 6.36845 7.10268 6.25543 7.10037ZM12.4869 12.4876H10.9992V9.90468C10.9992 9.14293 10.6754 8.9078 10.2574 8.9078C9.81599 8.9078 9.38287 9.24055 9.38287 9.92393V12.4876H7.89443V7.75899H9.3258V8.41418H9.34505C9.48874 8.12337 9.99199 7.6263 10.7599 7.6263C11.5904 7.6263 12.4876 8.11924 12.4876 9.56299L12.4869 12.4876Z" fill="var(--fill-0, white)"/>
</g>
</svg>
