<svg xmlns="http://www.w3.org/2000/svg" width="18" height="18" viewBox="0 0 18 18" fill="none">
  <g clip-path="url(#clip0_27176_17654)">
    <path d="M9 1.50024C4.86 1.50024 1.5 4.86024 1.5 9.00025C1.5 13.1402 4.86 16.5002 9 16.5002C13.14 16.5002 16.5 13.1402 16.5 9.00025C16.5 4.86024 13.14 1.50024 9 1.50024ZM9 15.0002C5.6925 15.0002 3 12.3077 3 9.00025C3 5.69274 5.6925 3.00024 9 3.00024C12.3075 3.00024 15 5.69274 15 9.00025C15 12.3077 12.3075 15.0002 9 15.0002ZM12.4425 5.68524L7.5 10.6277L5.5575 8.69275L4.5 9.75025L7.5 12.7502L13.5 6.75025L12.4425 5.68524Z" fill="#00A6CA"/>
  </g>
  <defs>
    <clipPath id="clip0_27176_17654">
      <rect width="18" height="18" fill="white"/>
    </clipPath>
  </defs>
</svg>