<svg preserveAspectRatio="none" width="100%" height="100%" overflow="visible" style="display: block;" viewBox="0 0 21.5515 23.1494" fill="none" xmlns="http://www.w3.org/2000/svg">
<g id="Icon">
<path id="Vector" d="M0.432832 22.7908C0.158666 22.5141 0 22.0832 0 21.5252V1.62169C0 1.06369 0.158666 0.632813 0.432832 0.356063L0.5005 0.295312L12.0668 11.4441V11.7073L0.5005 22.8561L0.432832 22.7908Z" fill="url(#paint0_linear_0_199)"/>
<path id="Vector_2" d="M15.9168 7.72734L12.0656 11.4455V11.7087L15.9215 15.4268L16.0078 15.3785L20.5741 12.8731C21.8773 12.1621 21.8773 10.9921 20.5741 10.2766L16.0078 7.77572L15.9168 7.72734V7.72734Z" fill="url(#paint1_linear_0_199)"/>
<path id="Vector_3" d="M16.0051 7.77494L12.0629 11.5763L0.428906 0.356692C0.86174 -0.0820575 1.56757 -0.134934 2.37024 0.303816L16.0051 7.77494" fill="url(#paint2_linear_0_199)"/>
<path id="Vector_4" d="M16.0051 15.3783L2.37024 22.8494C1.56757 23.2837 0.86174 23.2308 0.428906 22.7921L12.0629 11.577L16.0051 15.3783Z" fill="url(#paint3_linear_0_199)"/>
</g>
<defs>
<linearGradient id="paint0_linear_0_199" x1="11.0399" y1="1.41442" x2="-4.0543" y2="17.0676" gradientUnits="userSpaceOnUse">
<stop stop-color="#00A0FF"/>
<stop offset="0.0066" stop-color="#00A1FF"/>
<stop offset="0.2601" stop-color="#00BEFF"/>
<stop offset="0.5122" stop-color="#00D2FF"/>
<stop offset="0.7604" stop-color="#00DFFF"/>
<stop offset="1" stop-color="#00E3FF"/>
</linearGradient>
<linearGradient id="paint1_linear_0_199" x1="22.2711" y1="11.5784" x2="-0.312705" y2="11.5784" gradientUnits="userSpaceOnUse">
<stop stop-color="#FFE000"/>
<stop offset="0.4087" stop-color="#FFBD00"/>
<stop offset="0.7754" stop-color="#FFA500"/>
<stop offset="1" stop-color="#FF9C00"/>
</linearGradient>
<linearGradient id="paint2_linear_0_199" x1="13.8614" y1="13.6428" x2="-6.60749" y2="34.8698" gradientUnits="userSpaceOnUse">
<stop stop-color="#FF3A44"/>
<stop offset="1" stop-color="#C31162"/>
</linearGradient>
<linearGradient id="paint3_linear_0_199" x1="-2.49961" y1="-6.26447" x2="6.64068" y2="3.21427" gradientUnits="userSpaceOnUse">
<stop stop-color="#32A071"/>
<stop offset="0.0685" stop-color="#2DA771"/>
<stop offset="0.4762" stop-color="#15CF74"/>
<stop offset="0.8009" stop-color="#06E775"/>
<stop offset="1" stop-color="#00F076"/>
</linearGradient>
</defs>
</svg>
