<svg preserveAspectRatio="none" width="100%" height="100%" overflow="visible" style="display: block;" viewBox="0 0 19.3724 22.9604" fill="none" xmlns="http://www.w3.org/2000/svg">
<g id="Icon">
<g id="Vector">
<path d="M16.1804 12.2103C16.1533 9.3096 18.6434 7.8984 18.7573 7.8327C17.347 5.85 15.1612 5.5791 14.393 5.5575C12.5572 5.3712 10.7764 6.6168 9.84116 6.6168C8.88729 6.6168 7.44716 5.5755 5.89502 5.6061C3.89769 5.6358 2.02916 6.7509 1.00436 8.4825C-1.11058 12.0132 0.466756 17.2017 2.49302 20.0556C3.50662 21.4533 4.69102 23.0139 6.24129 22.959C7.75796 22.8987 8.32449 22.0266 10.1548 22.0266C11.9682 22.0266 12.5002 22.959 14.0813 22.9239C15.709 22.8987 16.7338 21.5199 17.712 20.1096C18.8833 18.5076 19.3537 16.9299 19.3724 16.8489C19.3341 16.8363 16.2112 15.687 16.1804 12.2103Z" fill="#EFEFEF"/>
<path d="M13.1937 3.6801C14.0094 2.6964 14.5676 1.3581 14.4126 0C13.232 0.0504 11.7554 0.7875 10.9052 1.7496C10.1529 2.5974 9.48089 3.987 9.65449 5.2938C10.9808 5.3892 12.3425 4.6485 13.1937 3.6801Z" fill="#EFEFEF"/>
</g>
</g>
</svg>
