<svg preserveAspectRatio="none" width="100%" height="100%" overflow="visible" style="display: block;" viewBox="0 0 89.9958 25.0537" fill="none" xmlns="http://www.w3.org/2000/svg">
<g id="Group">
<path id="Vector" d="M12.6659 0C17.5398 0 22.5912 2.66237 23.9075 8.19946H19.9242C18.6775 5.153 15.9044 3.74872 12.6311 3.71393C7.54382 3.71393 4.16063 7.35757 4.16063 12.5809C4.16063 17.4495 7.54382 21.3371 12.6311 21.3371C16.0471 21.3371 18.9272 19.6918 20.0294 16.4322H24.051C22.8053 22.4261 17.6825 25.0537 12.6311 25.0537C5.87112 25.0537 0 20.4639 0 12.5809C0 4.65969 5.87112 0 12.6659 0Z" fill="var(--fill-0, white)"/>
<path id="Vector_2" d="M37.0665 21.5155V24.8078H25.043V21.5155H28.9922V3.53956H25.3623V0.277344H36.7472V3.53956H33.1183V21.5155H37.0665Z" fill="var(--fill-0, white)"/>
<path id="Vector_3" d="M54.744 11.9144C57.3434 12.7906 58.7647 14.823 58.7647 17.5904C58.7647 21.9721 55.7052 24.8093 50.8662 24.8093H39.7305V0.28125H49.8344C54.3526 0.28125 57.6592 2.55904 57.6592 7.18491C57.6592 9.25108 56.7015 10.9677 54.744 11.9144ZM43.8583 3.81883V10.5824H49.5501C51.9343 10.5824 53.5697 9.67165 53.6073 7.28757C53.6073 4.87015 51.9691 3.81883 49.5501 3.81883H43.8583ZM43.8583 13.9091V21.234H50.62C52.9303 21.234 54.565 19.9395 54.6737 17.5904C54.6737 16.3644 54.2467 15.3819 53.3931 14.6843C52.4302 13.982 51.2959 13.9091 50.1544 13.9091H43.8583Z" fill="var(--fill-0, white)"/>
<path id="Vector_4" d="M72.4571 21.5155V24.8078H60.4336V21.5155H64.3821V3.53956H60.7544V0.277344H72.1381V3.53956H68.5089V21.5155H72.4571Z" fill="var(--fill-0, white)"/>
<path id="Vector_5" d="M79.2871 21.1275H89.9958V24.8078H75.125V0.277344H79.2871V21.1275Z" fill="var(--fill-0, white)"/>
</g>
</svg>
