<svg preserveAspectRatio="none" width="100%" height="100%" overflow="visible" style="display: block;" viewBox="0 0 79.5756 39.1357" fill="none" xmlns="http://www.w3.org/2000/svg">
<g id="Group 1000004145">
<g id="Group 1000004145_2">
<path id="Ellipse 2015" d="M79.5756 39.1346C79.5756 33.1933 78.2003 27.33 75.554 21.9893L72.5664 23.4214C74.9916 28.3161 76.2521 33.6896 76.2521 39.1346H79.5756Z" fill="var(--fill-0, #008A00)"/>
<path id="Ellipse 2016" d="M75.0166 20.9468C72.7917 16.7774 69.82 13.0372 66.2444 9.90604L64.0344 12.3476C67.3113 15.2172 70.0347 18.645 72.0738 22.4661L75.0166 20.9468Z" fill="var(--fill-0, #A9D161)"/>
<path id="Ellipse 2017" d="M65.5747 9.33154C61.9701 6.31435 57.8472 3.95396 53.3997 2.36134L52.2627 5.43314C56.3387 6.89273 60.1173 9.05595 63.4207 11.8211L65.5747 9.33154Z" fill="var(--fill-0, #FCD800)"/>
<path id="Ellipse 2018" d="M52.771 2.14209C48.4883 0.687925 43.9845 -0.0360528 39.4539 0.00138074L39.4818 3.2703C43.634 3.236 47.7616 3.8995 51.6866 5.23219L52.771 2.14209Z" fill="var(--fill-0, #FF871F)"/>
<path id="Ellipse 2019" d="M0 39.1356C9.04553e-07 28.9583 4.03067 19.1814 11.2371 11.8785C18.4435 4.57554 28.2588 0.321123 38.6011 0.0175859L38.7002 3.28517C29.2218 3.56335 20.2264 7.4624 13.622 14.1553C7.01751 20.8482 3.32353 29.8085 3.32353 39.1356H0Z" fill="var(--fill-0, #E15825)"/>
</g>
<path id="Subtract" d="M40.2788 13.0996C58.604 13.0996 67.8417 29.7858 66.9478 39.1357H48.9097C48.6761 35.9329 45.6016 31.21 39.9526 31.21C33.6148 31.21 31.0736 35.9329 30.6997 39.1357H12.5679C12.5679 29.7859 19.7191 13.0998 40.2788 13.0996Z" fill="var(--fill-0, #F8D0D8)"/>
<path id="Polygon 5" d="M56.8466 10.4435C57.2072 10.217 57.6737 10.4894 57.6534 10.9148L57.4069 16.0957C57.3886 16.4803 56.9775 16.7161 56.6363 16.5377L52.2705 14.2551C51.9101 14.0667 51.8899 13.5583 52.2343 13.3419L56.8466 10.4435Z" fill="var(--fill-0, #004364)"/>
</g>
</svg>
