<svg preserveAspectRatio="none" width="100%" height="100%" overflow="visible" style="display: block;" viewBox="0 0 24 24" fill="none" xmlns="http://www.w3.org/2000/svg">
<g id="Featured seasonal and gifts">
<path id="Vector" d="M4.00098 20V11C3.45098 11 2.98014 10.8042 2.58848 10.4125C2.19681 10.0208 2.00098 9.55 2.00098 9V7C2.00098 6.45 2.19681 5.97917 2.58848 5.5875C2.98014 5.19583 3.45098 5 4.00098 5H7.20098C7.11764 4.85 7.06348 4.69167 7.03848 4.525C7.01348 4.35833 7.00098 4.18333 7.00098 4C7.00098 3.16667 7.29264 2.45833 7.87598 1.875C8.45931 1.29167 9.16764 1 10.001 1C10.3843 1 10.7426 1.07083 11.076 1.2125C11.4093 1.35417 11.7176 1.55 12.001 1.8C12.2843 1.53333 12.5926 1.33333 12.926 1.2C13.2593 1.06667 13.6176 1 14.001 1C14.8343 1 15.5426 1.29167 16.126 1.875C16.7093 2.45833 17.001 3.16667 17.001 4C17.001 4.18333 16.9843 4.35417 16.951 4.5125C16.9176 4.67083 16.8676 4.83333 16.801 5H20.001C20.551 5 21.0218 5.19583 21.4135 5.5875C21.8051 5.97917 22.001 6.45 22.001 7V9C22.001 9.55 21.8051 10.0208 21.4135 10.4125C21.0218 10.8042 20.551 11 20.001 11V20C20.001 20.55 19.8051 21.0208 19.4135 21.4125C19.0218 21.8042 18.551 22 18.001 22H6.00098C5.45098 22 4.98014 21.8042 4.58848 21.4125C4.19681 21.0208 4.00098 20.55 4.00098 20ZM14.001 3C13.7176 3 13.4801 3.09583 13.2885 3.2875C13.0968 3.47917 13.001 3.71667 13.001 4C13.001 4.28333 13.0968 4.52083 13.2885 4.7125C13.4801 4.90417 13.7176 5 14.001 5C14.2843 5 14.5218 4.90417 14.7135 4.7125C14.9051 4.52083 15.001 4.28333 15.001 4C15.001 3.71667 14.9051 3.47917 14.7135 3.2875C14.5218 3.09583 14.2843 3 14.001 3ZM9.00098 4C9.00098 4.28333 9.09681 4.52083 9.28848 4.7125C9.48014 4.90417 9.71764 5 10.001 5C10.2843 5 10.5218 4.90417 10.7135 4.7125C10.9051 4.52083 11.001 4.28333 11.001 4C11.001 3.71667 10.9051 3.47917 10.7135 3.2875C10.5218 3.09583 10.2843 3 10.001 3C9.71764 3 9.48014 3.09583 9.28848 3.2875C9.09681 3.47917 9.00098 3.71667 9.00098 4ZM4.00098 7V9H11.001V7H4.00098ZM11.001 20V11H6.00098V20H11.001ZM13.001 20H18.001V11H13.001V20ZM20.001 9V7H13.001V9H20.001Z" fill="#00A6CA"/>
</g>
</svg>
