<svg preserveAspectRatio="none" width="100%" height="100%" overflow="visible" style="display: block;" viewBox="0 0 32 32" fill="none" xmlns="http://www.w3.org/2000/svg">
<g id="Book 4">
<path id="Vector" d="M8 29.3333C6.88889 29.3333 5.94444 28.9444 5.16667 28.1667C4.38889 27.3889 4 26.4444 4 25.3333V6.66667C4 5.55556 4.38889 4.61111 5.16667 3.83333C5.94444 3.05556 6.88889 2.66667 8 2.66667H22.6667V24H8C7.62222 24 7.30556 24.1278 7.05 24.3833C6.79444 24.6389 6.66667 24.9556 6.66667 25.3333C6.66667 25.7111 6.79444 26.0278 7.05 26.2833C7.30556 26.5389 7.62222 26.6667 8 26.6667H25.3333V5.33333H28V29.3333H8ZM12 21.3333H20V5.33333H12V21.3333ZM9.33333 21.3333V5.33333H8C7.62222 5.33333 7.30556 5.46111 7.05 5.71667C6.79444 5.97222 6.66667 6.28889 6.66667 6.66667V21.5667C6.88889 21.5 7.10556 21.4444 7.31667 21.4C7.52778 21.3556 7.75556 21.3333 8 21.3333H9.33333Z" fill="var(--fill-0, #00A2D1)"/>
</g>
</svg>
